# xmcd CD database file generated by RipIT.
#
# Track frame offsets:
#	150
#	22340
#	41198
#	60425
#	77182
#	94982
#	118961
#	143904
#	159084
#	181357
#	210317
#	238668
#	265641
#	290926
#	310366
#	330932
#
# Disc length: 4759 seconds
#
# Revision: 4
# Processed by: cddbd v1.5.1PL2 Copyright (c) Steve Scherf et al.
# Submitted via: RipIT 3.4 www.suwald.com/ripit/ripit.html at Sun Feb 26 14:41:15 CET 2006.
#
DISCID=e9129510
DTITLE=Depeche Mode - Inside
DYEAR=2000
DGENRE=Synthpop
TTITLE0=Personal Jesus
TTITLE1=A Question Of Time
TTITLE2=Little 15
TTITLE3=People Are People
TTITLE4=Everything Counts
TTITLE5=Behind The Wheel
TTITLE6=Barrel Of A Gun
TTITLE7=Condemnation
TTITLE8=Strangelove
TTITLE9=In Your Room
TTITLE10=Surrender
TTITLE11=It's No Good
TTITLE12=Walking In My Shoes
TTITLE13=Stripped
TTITLE14=Only When I Lose Myself
TTITLE15=Headstar (Luke Slater Remix)
EXTD=ID3G: 147 YEAR: 2000
EXTT0=
EXTT1=
EXTT2=
EXTT3=
EXTT4=
EXTT5=
EXTT6=
EXTT7=
EXTT8=
EXTT9=
EXTT10=
EXTT11=
EXTT12=
EXTT13=
EXTT14=
EXTT15=
PLAYORDER=
